<svg id="Layer_1" data-name="Layer 1" xmlns="http://www.w3.org/2000/svg" viewBox="0 0 95.44 92.51"><defs><style>.cls-1{fill:none;}.cls-1,.cls-2{stroke:#fff;stroke-linecap:round;stroke-miterlimit:10;stroke-width:5px;}.cls-2{fill:#fff;}</style></defs><title>shoppingCart</title><path class="cls-1" d="M252.45,376.85h16.08q5.43,26.81,10.85,53.62a9.78,9.78,0,0,0,.51,1.79,11,11,0,0,0,5.75,5.61h43.28a6.86,6.86,0,0,0,2-.51c3.54-1.51,4.89-5.85,5.61-8.42,1.64-5.81,4-16.41,6.26-30.1a2.79,2.79,0,0,0-.17-1.68,2.7,2.7,0,0,0-1.63-1.44,2.21,2.21,0,0,0-.46-.05c-.92,0-29.1,0-68.22.06" transform="translate(-249.95 -374.35)"/><circle class="cls-2" cx="35.53" cy="82.9" r="7.11"/><circle class="cls-2" cx="79.81" cy="82.9" r="7.11"/></svg>